<?xml version="1.0" encoding="utf-8"?>
<!-- Generator: Adobe Illustrator 22.0.1, SVG Export Plug-In . SVG Version: 6.00 Build 0)  -->
<svg version="1.1" id="Calque_1" xmlns="http://www.w3.org/2000/svg" xmlns:xlink="http://www.w3.org/1999/xlink" x="0px" y="0px"
	 viewBox="0 0 464.9 219.3" style="enable-background:new 0 0 464.9 219.3;" xml:space="preserve">
<g>
	<g>
		<path d="M213.9,97.9c30.8,9.3,64.9,0.9,89.3-19.6c11.7-9.8,24.5-25.1,26.5-40.7c2.2-17.6-14.4-26.8-29-30.3
			c-37.9-9.2-80.3-6.1-117.6,4.2C145.4,22,110.7,41.3,80.5,66c-32.2,26.4-60.7,60.1-78.2,98.1c-1.3,2.8,2.3,4.9,4.1,2.4
			c19.9-28.1,40.7-55.4,66.3-78.6c25.7-23.3,55-42.8,87.2-55.7c33.9-13.6,70.5-21,107.2-19.5c9.1,0.4,18.2,1.2,27.2,2.8
			c7,1.2,14.4,3.3,20.1,7.7c13.7,10.7-0.2,29.5-8.8,39.1c-21.9,24.3-57.5,35.2-88.9,25.5C210.2,85.8,207.4,96,213.9,97.9L213.9,97.9
			z"/>
	</g>
</g>
<g>
	<g>
		<path d="M317.3,139.4c-16-14.8-34.3-27.1-54.3-36c-9.7-4.3-19.6-7.8-29.8-10.5c-10.4-2.8-21.2-4.8-31.9-3c-2.3,0.4-1.8,3.6,0,4.2
			c9.6,3.4,19.7,4.6,29.7,7c9.9,2.3,19.7,5.5,29.1,9.3c19.4,8,37.4,19.2,53,33.2C315.9,146.1,320.1,142,317.3,139.4L317.3,139.4z"/>
	</g>
</g>
<g>
	<g>
		<path d="M289.8,93.3c-1.6,4.8,2.1,8.4,6.6,9.2c6.5,1.2,13.2-2.8,18.8-5.5c7.2-3.4,14.1-7.2,21.2-10.8c3.5-1.8,7-3.7,10.5-5.6
			c4-2.1,8.1-4.9,12.6-5.8c-0.7-2.4-1.3-4.7-2-7.1c-7.1,1.9-14.3,6.1-20.7,9.6c-5,2.7-2.5,10.1,2.8,10.3c13.4,0.4,25-3,37.5-7.5
			c-2-2-4-4-5.9-5.9c-2.7,7,3,12.2,9.2,14.1c8.1,2.5,17.9,0.4,26.1-0.9c8.9-1.4,17.7-4.2,25.9-8.1c4.1-2,8.3-4.1,12.3-6.2
			c4.5-2.4,9.1-5.6,14.2-6.7c-1.1-1.9-2.3-3.9-3.4-5.8c-5.1,4.9-9,11.1-12.9,17c-4.1,6.1-8,12.4-11.9,18.7
			c-7.7,12.2-15.1,24.6-22.2,37.2c-7.1,12.5-13.9,25.3-19.9,38.4c-5.8,12.7-12.3,27.1-12.6,41.3c-0.1,3,4.3,5.2,6.4,2.6
			c8.6-10.8,14.1-24.5,19.8-37c6-13.1,12.4-26.1,19.1-38.9c6.5-12.5,13.4-24.9,20.2-37.3c6.8-12.3,15.8-25,19.9-38.6
			c1-3.2-3.5-6-5.8-3.4c-4.8,5.4-13.5,8.1-20.3,10c-6.4,1.8-13,3.1-19.6,4.2c-6.7,1.1-13.4,2.3-20.1,2.8c-3.2,0.2-6.7,0.8-9.9,0.5
			c-1-0.1-1.9-0.2-2.9-0.6c-0.8-0.3-2.1-1.5-2.3-0.6c0.8-4.1-3.2-7.5-7.1-5.4c-10,5.3-22.7,6.1-33.8,5.2c0.9,3.4,1.9,6.9,2.8,10.3
			c6.3-3.8,13.5-7.8,18.7-13c3.4-3.3-2-8.7-5.2-5.2c-3.7,4.1-10.1,6.5-15,8.9c-5.3,2.5-10.6,5-16.1,7.1c-4.8,1.8-9.7,3.6-14.6,5.3
			c-2.6,0.9-5.2,1.8-7.8,2.8c-1,0.4-2.4,0.6-3.2,1c-0.3,0.1-0.7,0-1,0c-1-0.3-1,0.4,0.1,1.9C300,90.2,291.6,87.9,289.8,93.3
			L289.8,93.3z"/>
	</g>
</g>
</svg>
